<mxfile host="app.diagrams.net" modified="2023-04-27T07:44:39.557Z" agent="Mozilla/5.0 (X11; Linux x86_64) AppleWebKit/537.36 (KHTML, like Gecko) Chrome/110.0.0.0 Safari/537.36" etag="EyW1BmlsOxe9_JEdT3z3" version="21.2.2" type="github">
  <diagram id="C5RBs43oDa-KdzZeNtuy" name="Page-1">
    <mxGraphModel dx="1434" dy="750" grid="1" gridSize="10" guides="1" tooltips="1" connect="1" arrows="1" fold="1" page="1" pageScale="1" pageWidth="827" pageHeight="1169" math="0" shadow="0">
      <root>
        <mxCell id="WIyWlLk6GJQsqaUBKTNV-0" />
        <mxCell id="WIyWlLk6GJQsqaUBKTNV-1" parent="WIyWlLk6GJQsqaUBKTNV-0" />
        <mxCell id="vWsim1BH9OkrU2xUrlqa-30" style="edgeStyle=orthogonalEdgeStyle;rounded=0;orthogonalLoop=1;jettySize=auto;html=1;exitX=0.5;exitY=1;exitDx=0;exitDy=0;entryX=1;entryY=0.5;entryDx=0;entryDy=0;" edge="1" parent="WIyWlLk6GJQsqaUBKTNV-1" source="vWsim1BH9OkrU2xUrlqa-25" target="vWsim1BH9OkrU2xUrlqa-28">
          <mxGeometry relative="1" as="geometry" />
        </mxCell>
        <mxCell id="vWsim1BH9OkrU2xUrlqa-25" value="" style="rounded=0;whiteSpace=wrap;html=1;" vertex="1" parent="WIyWlLk6GJQsqaUBKTNV-1">
          <mxGeometry x="354" y="180" width="326" height="150" as="geometry" />
        </mxCell>
        <mxCell id="vWsim1BH9OkrU2xUrlqa-0" value="" style="rounded=0;html=1;jettySize=auto;orthogonalLoop=1;fontSize=11;endArrow=block;endFill=0;endSize=8;strokeWidth=1;shadow=0;labelBackgroundColor=none;edgeStyle=orthogonalEdgeStyle;" edge="1" parent="WIyWlLk6GJQsqaUBKTNV-1" source="vWsim1BH9OkrU2xUrlqa-1">
          <mxGeometry relative="1" as="geometry">
            <mxPoint x="220" y="170" as="targetPoint" />
          </mxGeometry>
        </mxCell>
        <mxCell id="vWsim1BH9OkrU2xUrlqa-1" value="提交机器翻译请求" style="rounded=1;whiteSpace=wrap;html=1;fontSize=12;glass=0;strokeWidth=1;shadow=0;" vertex="1" parent="WIyWlLk6GJQsqaUBKTNV-1">
          <mxGeometry x="160" y="80" width="120" height="40" as="geometry" />
        </mxCell>
        <mxCell id="vWsim1BH9OkrU2xUrlqa-32" style="edgeStyle=orthogonalEdgeStyle;rounded=0;orthogonalLoop=1;jettySize=auto;html=1;exitX=0.5;exitY=1;exitDx=0;exitDy=0;entryX=0.5;entryY=0;entryDx=0;entryDy=0;" edge="1" parent="WIyWlLk6GJQsqaUBKTNV-1" source="vWsim1BH9OkrU2xUrlqa-15" target="vWsim1BH9OkrU2xUrlqa-23">
          <mxGeometry relative="1" as="geometry" />
        </mxCell>
        <mxCell id="vWsim1BH9OkrU2xUrlqa-15" value="接受机器翻译请求" style="rounded=1;whiteSpace=wrap;html=1;fontSize=12;glass=0;strokeWidth=1;shadow=0;" vertex="1" parent="WIyWlLk6GJQsqaUBKTNV-1">
          <mxGeometry x="160" y="170" width="120" height="40" as="geometry" />
        </mxCell>
        <mxCell id="vWsim1BH9OkrU2xUrlqa-27" style="edgeStyle=orthogonalEdgeStyle;rounded=0;orthogonalLoop=1;jettySize=auto;html=1;exitX=1;exitY=0.5;exitDx=0;exitDy=0;entryX=0;entryY=0.5;entryDx=0;entryDy=0;" edge="1" parent="WIyWlLk6GJQsqaUBKTNV-1" source="vWsim1BH9OkrU2xUrlqa-23" target="vWsim1BH9OkrU2xUrlqa-25">
          <mxGeometry relative="1" as="geometry" />
        </mxCell>
        <mxCell id="vWsim1BH9OkrU2xUrlqa-23" value="启动Celery异步任务" style="rounded=1;whiteSpace=wrap;html=1;fontSize=12;glass=0;strokeWidth=1;shadow=0;" vertex="1" parent="WIyWlLk6GJQsqaUBKTNV-1">
          <mxGeometry x="160" y="235" width="120" height="40" as="geometry" />
        </mxCell>
        <mxCell id="vWsim1BH9OkrU2xUrlqa-24" value="" style="group" vertex="1" connectable="0" parent="WIyWlLk6GJQsqaUBKTNV-1">
          <mxGeometry x="370" y="200" width="290" height="120" as="geometry" />
        </mxCell>
        <mxCell id="vWsim1BH9OkrU2xUrlqa-16" value="获取需要翻译的字符串" style="rounded=1;whiteSpace=wrap;html=1;fontSize=12;glass=0;strokeWidth=1;shadow=0;" vertex="1" parent="vWsim1BH9OkrU2xUrlqa-24">
          <mxGeometry width="120" height="40" as="geometry" />
        </mxCell>
        <mxCell id="vWsim1BH9OkrU2xUrlqa-17" value="遍历字符串列表" style="rounded=1;whiteSpace=wrap;html=1;fontSize=12;glass=0;strokeWidth=1;shadow=0;" vertex="1" parent="vWsim1BH9OkrU2xUrlqa-24">
          <mxGeometry y="80" width="120" height="40" as="geometry" />
        </mxCell>
        <mxCell id="vWsim1BH9OkrU2xUrlqa-20" style="edgeStyle=orthogonalEdgeStyle;rounded=0;orthogonalLoop=1;jettySize=auto;html=1;exitX=0.5;exitY=1;exitDx=0;exitDy=0;entryX=0.5;entryY=0;entryDx=0;entryDy=0;" edge="1" parent="vWsim1BH9OkrU2xUrlqa-24" source="vWsim1BH9OkrU2xUrlqa-16" target="vWsim1BH9OkrU2xUrlqa-17">
          <mxGeometry relative="1" as="geometry" />
        </mxCell>
        <mxCell id="vWsim1BH9OkrU2xUrlqa-18" value="调用翻译接口，获取翻译文本信息" style="rounded=1;whiteSpace=wrap;html=1;fontSize=12;glass=0;strokeWidth=1;shadow=0;" vertex="1" parent="vWsim1BH9OkrU2xUrlqa-24">
          <mxGeometry x="170" width="120" height="40" as="geometry" />
        </mxCell>
        <mxCell id="vWsim1BH9OkrU2xUrlqa-21" style="edgeStyle=orthogonalEdgeStyle;rounded=0;orthogonalLoop=1;jettySize=auto;html=1;exitX=1;exitY=0.5;exitDx=0;exitDy=0;entryX=0;entryY=0.5;entryDx=0;entryDy=0;" edge="1" parent="vWsim1BH9OkrU2xUrlqa-24" source="vWsim1BH9OkrU2xUrlqa-17" target="vWsim1BH9OkrU2xUrlqa-18">
          <mxGeometry relative="1" as="geometry" />
        </mxCell>
        <mxCell id="vWsim1BH9OkrU2xUrlqa-19" value="保存翻译内容" style="rounded=1;whiteSpace=wrap;html=1;fontSize=12;glass=0;strokeWidth=1;shadow=0;" vertex="1" parent="vWsim1BH9OkrU2xUrlqa-24">
          <mxGeometry x="170" y="80" width="120" height="40" as="geometry" />
        </mxCell>
        <mxCell id="vWsim1BH9OkrU2xUrlqa-22" style="edgeStyle=orthogonalEdgeStyle;rounded=0;orthogonalLoop=1;jettySize=auto;html=1;exitX=0.5;exitY=1;exitDx=0;exitDy=0;entryX=0.5;entryY=0;entryDx=0;entryDy=0;" edge="1" parent="vWsim1BH9OkrU2xUrlqa-24" source="vWsim1BH9OkrU2xUrlqa-18" target="vWsim1BH9OkrU2xUrlqa-19">
          <mxGeometry relative="1" as="geometry" />
        </mxCell>
        <mxCell id="vWsim1BH9OkrU2xUrlqa-26" value="Celery异步任务" style="text;html=1;align=center;verticalAlign=middle;resizable=0;points=[];autosize=1;strokeColor=none;fillColor=none;" vertex="1" parent="WIyWlLk6GJQsqaUBKTNV-1">
          <mxGeometry x="340" y="175" width="110" height="30" as="geometry" />
        </mxCell>
        <mxCell id="vWsim1BH9OkrU2xUrlqa-31" style="edgeStyle=orthogonalEdgeStyle;rounded=0;orthogonalLoop=1;jettySize=auto;html=1;exitX=0.5;exitY=1;exitDx=0;exitDy=0;entryX=0.5;entryY=0;entryDx=0;entryDy=0;" edge="1" parent="WIyWlLk6GJQsqaUBKTNV-1" source="vWsim1BH9OkrU2xUrlqa-28" target="vWsim1BH9OkrU2xUrlqa-29">
          <mxGeometry relative="1" as="geometry" />
        </mxCell>
        <mxCell id="vWsim1BH9OkrU2xUrlqa-28" value="等待异步任务完成" style="rounded=1;whiteSpace=wrap;html=1;fontSize=12;glass=0;strokeWidth=1;shadow=0;" vertex="1" parent="WIyWlLk6GJQsqaUBKTNV-1">
          <mxGeometry x="160" y="300" width="120" height="40" as="geometry" />
        </mxCell>
        <mxCell id="vWsim1BH9OkrU2xUrlqa-35" style="edgeStyle=orthogonalEdgeStyle;rounded=0;orthogonalLoop=1;jettySize=auto;html=1;exitX=1;exitY=0.5;exitDx=0;exitDy=0;entryX=0;entryY=0.5;entryDx=0;entryDy=0;" edge="1" parent="WIyWlLk6GJQsqaUBKTNV-1" source="vWsim1BH9OkrU2xUrlqa-29" target="vWsim1BH9OkrU2xUrlqa-33">
          <mxGeometry relative="1" as="geometry" />
        </mxCell>
        <mxCell id="vWsim1BH9OkrU2xUrlqa-29" value="完成批量机器翻译" style="rounded=1;whiteSpace=wrap;html=1;fontSize=12;glass=0;strokeWidth=1;shadow=0;" vertex="1" parent="WIyWlLk6GJQsqaUBKTNV-1">
          <mxGeometry x="160" y="370" width="120" height="40" as="geometry" />
        </mxCell>
        <mxCell id="vWsim1BH9OkrU2xUrlqa-33" value="结束" style="rounded=1;whiteSpace=wrap;html=1;fontSize=12;glass=0;strokeWidth=1;shadow=0;" vertex="1" parent="WIyWlLk6GJQsqaUBKTNV-1">
          <mxGeometry x="354" y="370" width="120" height="40" as="geometry" />
        </mxCell>
      </root>
    </mxGraphModel>
  </diagram>
</mxfile>
